<!-- icon666.com - MILLIONS vector ICONS FREE --><svg viewBox="0 0 32 32" xmlns="http://www.w3.org/2000/svg" xmlns:xlink="http://www.w3.org/1999/xlink"><linearGradient id="linear-gradient" gradientUnits="userSpaceOnUse" x1="16.076" x2="15.924" y1="1.339" y2="30.661"><stop offset="0" stop-color="#09c6f9"></stop><stop offset="1" stop-color="#045de9"></stop></linearGradient><g id="love_shopping" data-name="love shopping"><rect fill="url(#linear-gradient)" height="29.2" rx="2.84" width="29.2" x="1.4" y="1.4"></rect><g fill="#fff" fill-rule="evenodd"><path d="m18.836 10.829v-.758c0-1.89-1.236-3.471-2.836-3.471s-2.836 1.581-2.836 3.471v.758zm.6 3.6a.518.518 0 1 1 -.518.517.517.517 0 0 1 .518-.522zm-6.872 0a.518.518 0 1 1 -.518.517.517.517 0 0 1 .518-.522zm7.472-2.4v1.3a1.718 1.718 0 1 1 -1.2 0v-1.3h-5.672v1.3a1.718 1.718 0 1 1 -1.2 0v-1.3h-.252a1.97 1.97 0 0 0 -2.112 1.533l-.9 9.048a1.451 1.451 0 0 0 .513 1.215 2.385 2.385 0 0 0 1.6.575h10.38a2.385 2.385 0 0 0 1.6-.575 1.451 1.451 0 0 0 .507-1.215l-.9-9.048a1.97 1.97 0 0 0 -2.108-1.533zm-8.072-1.2h-.252a3.168 3.168 0 0 0 -3.3 2.614l-.912 9.048a2.636 2.636 0 0 0 .9 2.223 3.592 3.592 0 0 0 2.4.886h10.393a3.592 3.592 0 0 0 2.4-.886 2.636 2.636 0 0 0 .9-2.223c-.259-2.585-.662-6.615-.9-9.048a3.168 3.168 0 0 0 -3.3-2.614h-.252v-.758c-.005-2.603-1.841-4.671-4.041-4.671s-4.036 2.068-4.036 4.671z"></path><path d="m15.555 18.832a.6.6 0 0 0 .89 0l.281-.3a.912.912 0 0 1 1.351 0 1.165 1.165 0 0 1 0 1.566l-2.077 2.222-2.077-2.22a1.165 1.165 0 0 1 0-1.566.912.912 0 0 1 1.351 0zm.445-1.267a2.092 2.092 0 0 0 -2.954.147 2.381 2.381 0 0 0 0 3.2l2.128 2.278a1.114 1.114 0 0 0 1.652 0l2.128-2.278a2.381 2.381 0 0 0 0-3.2 2.092 2.092 0 0 0 -2.954-.147z"></path></g></g></svg>